<svg width="71" height="68" viewBox="0 0 71 68" fill="none" xmlns="http://www.w3.org/2000/svg">
<path d="M23.9336 67.6375C26.92 67.6375 29.341 65.2085 29.341 62.2121C29.341 59.2157 26.92 56.7867 23.9336 56.7867C20.9471 56.7867 18.5261 59.2157 18.5261 62.2121C18.5261 65.2085 20.9471 67.6375 23.9336 67.6375Z" fill="#FCA3BE"/>
<path d="M52.0522 67.6375C55.0386 67.6375 57.4596 65.2085 57.4596 62.2121C57.4596 59.2157 55.0386 56.7867 52.0522 56.7867C49.0658 56.7867 46.6448 59.2157 46.6448 62.2121C46.6448 65.2085 49.0658 67.6375 52.0522 67.6375Z" fill="#FCA3BE"/>
<path d="M59.6226 27.4895C55.3202 27.4895 51.194 25.7747 48.1517 22.7223C45.1094 19.6699 43.4003 15.53 43.4003 11.2133H14.6544L13.6811 8.10995C13.5741 7.77675 13.3885 7.47443 13.1399 7.2288C12.8913 6.98318 12.5872 6.80153 12.2535 6.69935L3.38531 3.96495C3.11263 3.88087 2.82611 3.85151 2.54212 3.87854C2.25812 3.90557 1.98222 3.98845 1.73015 4.12246C1.22108 4.3931 0.84001 4.85556 0.670781 5.4081C0.501553 5.96064 0.558024 6.558 0.827772 7.06877C1.09752 7.57953 1.55845 7.96186 2.10916 8.13166L9.87423 10.5188L19.7806 41.9211L16.255 44.8291L15.9738 45.1112C15.1019 46.1242 14.6079 47.4096 14.5764 48.7476C14.5448 50.0857 14.9776 51.3931 15.8008 52.4464C16.3903 53.1657 17.1395 53.7366 17.9883 54.1134C18.8371 54.4902 19.762 54.6625 20.6891 54.6165H56.7891C57.3627 54.6165 57.9129 54.3879 58.3185 53.9809C58.7242 53.5739 58.9521 53.0219 58.9521 52.4464C58.9521 51.8708 58.7242 51.3188 58.3185 50.9118C57.9129 50.5048 57.3627 50.2762 56.7891 50.2762H20.343C20.0939 50.2677 19.8513 50.1948 19.6384 50.0647C19.4256 49.9346 19.2498 49.7516 19.1281 49.5335C19.0063 49.3153 18.9427 49.0693 18.9433 48.8193C18.9439 48.5692 19.0089 48.3236 19.1317 48.106L24.3445 43.7657H57.7192C58.2133 43.7801 58.6974 43.6244 59.0909 43.3243C59.4845 43.0242 59.7637 42.5979 59.8821 42.1164L63.5808 26.9253C62.2897 27.2766 60.9602 27.4661 59.6226 27.4895V27.4895Z" fill="#FCA3BE"/>
<path d="M70.3064 11.2133C70.3064 17.134 65.5227 21.933 59.6226 21.933C53.7225 21.933 48.9388 17.134 48.9388 11.2133C48.9388 5.29256 53.7225 0.493599 59.6226 0.493599C65.5227 0.493599 70.3064 5.29256 70.3064 11.2133Z" fill="white" stroke="black" stroke-width="0.2622"/>
</svg>
