<svg width="59" height="59" viewBox="0 0 59 59" fill="none" xmlns="http://www.w3.org/2000/svg">
<path d="M29.3875 0.400024C37.2939 0.400024 38.2804 0.429124 41.3825 0.574624C44.4816 0.720124 46.5914 1.20609 48.448 1.92777C50.3686 2.66691 51.9865 3.66795 53.6045 5.283C55.0842 6.7377 56.2292 8.49736 56.9597 10.4395C57.6785 12.2932 58.1674 14.4059 58.3129 17.505C58.4496 20.6071 58.4875 21.5936 58.4875 29.5C58.4875 37.4065 58.4584 38.393 58.3129 41.495C58.1674 44.5942 57.6785 46.7039 56.9597 48.5605C56.2313 50.5038 55.086 52.2638 53.6045 53.717C52.1494 55.1963 50.3898 56.3411 48.448 57.0723C46.5943 57.791 44.4816 58.2799 41.3825 58.4254C38.2804 58.5622 37.2939 58.6 29.3875 58.6C21.481 58.6 20.4945 58.5709 17.3925 58.4254C14.2933 58.2799 12.1836 57.791 10.327 57.0723C8.38404 56.3432 6.62408 55.1981 5.17046 53.717C3.69045 52.2626 2.54544 50.5029 1.81523 48.5605C1.09355 46.7069 0.607575 44.5942 0.462075 41.495C0.325305 38.393 0.287476 37.4065 0.287476 29.5C0.287476 21.5936 0.316575 20.6071 0.462075 17.505C0.607575 14.4029 1.09355 12.2961 1.81523 10.4395C2.54341 8.49617 3.68869 6.73603 5.17046 5.283C6.6245 3.80249 8.38434 2.6574 10.327 1.92777C12.1836 1.20609 14.2904 0.720124 17.3925 0.574624C20.4945 0.437854 21.481 0.400024 29.3875 0.400024ZM29.3875 14.95C25.5286 14.95 21.8277 16.483 19.0991 19.2116C16.3704 21.9403 14.8375 25.6411 14.8375 29.5C14.8375 33.3589 16.3704 37.0598 19.0991 39.7884C21.8277 42.5171 25.5286 44.05 29.3875 44.05C33.2464 44.05 36.9472 42.5171 39.6759 39.7884C42.4045 37.0598 43.9375 33.3589 43.9375 29.5C43.9375 25.6411 42.4045 21.9403 39.6759 19.2116C36.9472 16.483 33.2464 14.95 29.3875 14.95ZM48.3025 14.2225C48.3025 13.2578 47.9192 12.3326 47.2371 11.6504C46.5549 10.9683 45.6297 10.585 44.665 10.585C43.7003 10.585 42.775 10.9683 42.0929 11.6504C41.4107 12.3326 41.0275 13.2578 41.0275 14.2225C41.0275 15.1873 41.4107 16.1125 42.0929 16.7946C42.775 17.4768 43.7003 17.86 44.665 17.86C45.6297 17.86 46.5549 17.4768 47.2371 16.7946C47.9192 16.1125 48.3025 15.1873 48.3025 14.2225ZM29.3875 20.77C31.7028 20.77 33.9233 21.6898 35.5605 23.327C37.1977 24.9642 38.1175 27.1847 38.1175 29.5C38.1175 31.8154 37.1977 34.0359 35.5605 35.6731C33.9233 37.3103 31.7028 38.23 29.3875 38.23C27.0721 38.23 24.8516 37.3103 23.2144 35.6731C21.5772 34.0359 20.6575 31.8154 20.6575 29.5C20.6575 27.1847 21.5772 24.9642 23.2144 23.327C24.8516 21.6898 27.0721 20.77 29.3875 20.77Z" fill="black"/>
</svg>
